<?xml version="1.0" encoding="utf-8"?>
<!-- Generator: Adobe Illustrator 22.1.0, SVG Export Plug-In . SVG Version: 6.00 Build 0)  -->
<svg version="1.1" id="Layer_1" xmlns="http://www.w3.org/2000/svg" xmlns:xlink="http://www.w3.org/1999/xlink" x="0px" y="0px"
	 viewBox="0 0 44 44" style="enable-background:new 0 0 44 44;" xml:space="preserve">
<style type="text/css">
	.st0{fill:#BDBCBC;}
	.st1{fill:#898989;}
</style>
<path class="st0" d="M22,0C9.8,0,0,9.8,0,22s9.8,22,22,22s22-9.8,22-22S34.2,0,22,0z M9.8,31.7c-1.8,0-3.2-1.4-3.2-3.2
	c0-1.8,1.4-3.2,3.2-3.2c1.8,0,3.2,1.4,3.2,3.2C13,30.3,11.6,31.7,9.8,31.7z M16.5,40.3c-0.5,0-0.9-0.4-0.9-0.9
	c0-0.5,0.4-0.9,0.9-0.9c0.5,0,0.9,0.4,0.9,0.9C17.3,39.9,16.9,40.3,16.5,40.3z M14.1,16.4c-2.7,0-4.9-2.2-4.9-4.9
	c0-2.7,2.2-4.9,4.9-4.9c2.7,0,4.9,2.2,4.9,4.9C19,14.2,16.8,16.4,14.1,16.4z M24.2,27.9c-1.2,0-2.1-1-2.1-2.1s0.9-2.1,2.1-2.1
	c1.2,0,2.1,1,2.1,2.1S25.3,27.9,24.2,27.9z M32.3,13.1c0-0.8,0.7-1.5,1.5-1.5s1.5,0.7,1.5,1.5s-0.7,1.5-1.5,1.5S32.3,14,32.3,13.1z
	 M34.6,36c-0.8,0-1.5-0.7-1.5-1.5c0-0.8,0.7-1.5,1.5-1.5c0.8,0,1.5,0.7,1.5,1.5C36.1,35.4,35.5,36,34.6,36z"/>
<path class="st1" d="M19,11.4c0,2.7-2.2,4.9-4.9,4.9c-2.7,0-4.9-2.2-4.9-4.9c0-2.7,2.2-4.9,4.9-4.9C16.8,6.5,19,8.7,19,11.4z"/>
<path class="st1" d="M13,28.5c0,1.8-1.4,3.2-3.2,3.2c-1.8,0-3.2-1.4-3.2-3.2c0-1.8,1.4-3.2,3.2-3.2C11.6,25.3,13,26.8,13,28.5z"/>
<path class="st1" d="M17.3,39.4c0,0.5-0.4,0.9-0.9,0.9c-0.5,0-0.9-0.4-0.9-0.9c0-0.5,0.4-0.9,0.9-0.9C16.9,38.6,17.3,39,17.3,39.4z"
	/>
<path class="st1" d="M26.3,25.8c0,1.2-0.9,2.1-2.1,2.1c-1.2,0-2.1-1-2.1-2.1s0.9-2.1,2.1-2.1C25.3,23.6,26.3,24.6,26.3,25.8z"/>
<path class="st1" d="M35.3,13.1c0,0.8-0.7,1.5-1.5,1.5s-1.5-0.7-1.5-1.5s0.7-1.5,1.5-1.5S35.3,12.3,35.3,13.1z"/>
<path class="st1" d="M36.1,34.5c0,0.8-0.7,1.5-1.5,1.5c-0.8,0-1.5-0.7-1.5-1.5c0-0.8,0.7-1.5,1.5-1.5C35.5,33,36.1,33.7,36.1,34.5z"
	/>
</svg>
