<?xml version="1.0" encoding="utf-8"?>
<!-- Generator: Adobe Illustrator 22.1.0, SVG Export Plug-In . SVG Version: 6.00 Build 0)  -->
<svg version="1.1" id="Layer_1" xmlns="http://www.w3.org/2000/svg" xmlns:xlink="http://www.w3.org/1999/xlink" x="0px" y="0px"
	 viewBox="0 0 44 44" style="enable-background:new 0 0 44 44;" xml:space="preserve">
<style type="text/css">
	.st0{fill:#72D9F7;}
	.st1{fill:#00B2A9;}
</style>
<path class="st0" d="M44,22c0,5.8-2.3,11.1-6,15.1c-0.7-0.6-1.3-1.2-2-1.9c-1.2-1.1,0.4-2.5-1.5-3.2c-0.2-0.1-1.2,1.2-1.4,0.5
	c-0.3-0.9-0.5-1.8-0.8-2.7c-0.5-1.6-0.5-2.5-1.8-3.3c-0.5-0.3-4.2-2-4.2-2.6c0-1.5,0.4-3.3-0.6-4.4c-1.4-1.6-1.3-2.3-1.4-4.5
	c-0.1-1.4-1.8-2.2-2.8-1.4C21,10.4,20.1,8,18.9,4.9c-1.5,0.4-1.6,3.2-2,4.5c-0.4,1.5-0.1,3.3,0,4.8c0.1,1.9-1,7.8-3.5,6.8
	c-0.9-0.3-1.7-1.9-2.6-2.5c-1.7-1-3.4-2-5.1-3c-1.6-0.9-0.9-1.5-0.4-3.4c0.4-1.5,1.2-2.3,2.2-3.5C6.6,8,6.1,7.6,5.6,7.3
	C9.6,2.8,15.5,0,22,0C34.2,0,44,9.8,44,22z"/>
<g>
	<path class="st1" d="M38,37.1c-4,4.3-9.7,6.9-16,6.9C9.8,44,0,34.2,0,22c0-5.6,2.1-10.8,5.6-14.7c0.5,0.3,1,0.7,1.7,1.4
		c-1,1.2-1.9,2-2.2,3.5c-0.5,1.9-1.1,2.5,0.4,3.4c1.7,1,3.4,2,5.1,3c0.9,0.6,1.7,2.2,2.6,2.5c2.5,0.9,3.6-5,3.5-6.8
		c-0.1-1.5-0.4-3.3,0-4.8c0.4-1.4,0.5-4.2,2-4.5c1.2,3,2.2,5.5,2.7,8.7c1-0.8,2.7,0,2.8,1.4c0.1,2.3,0,2.9,1.4,4.5
		c1,1.1,0.6,2.9,0.6,4.4c0,0.6,3.7,2.2,4.2,2.6c1.3,0.8,1.3,1.7,1.8,3.3c0.3,0.9,0.6,1.8,0.8,2.7c0.2,0.7,1.2-0.6,1.4-0.5
		c1.9,0.6,0.2,2.1,1.5,3.2C36.7,35.8,37.4,36.4,38,37.1z"/>
</g>
</svg>
