<?xml version="1.0" encoding="utf-8"?>
<!-- Generator: Adobe Illustrator 22.1.0, SVG Export Plug-In . SVG Version: 6.00 Build 0)  -->
<svg version="1.1" id="Layer_1" xmlns="http://www.w3.org/2000/svg" xmlns:xlink="http://www.w3.org/1999/xlink" x="0px" y="0px"
	 viewBox="0 0 44 44" style="enable-background:new 0 0 44 44;" xml:space="preserve">
<style type="text/css">
	.st0{fill:#72D9F7;}
	.st1{fill:#00B2A9;}
	.st2{fill:#FFED89;}
</style>
<path class="st0" d="M22,0C9.8,0,0,9.8,0,22c0,0.6,0,1.1,0.1,1.7c7.3,0.6,16,0.5,24.9-1.8c6-1.5,12.8-1.9,19-1.8C43,8.8,33.5,0,22,0
	z M29.5,10.9l-2.3,1.7c-0.1,0.1-0.2,0.1-0.4,0c-1.5-0.8-3.1-1.2-4.9-1.2c-2,0-3.9,0.5-5.7,1.7l1.2,0.8c0.2,0.2,0.4,0.5,0.4,0.8
	c0,0.3-0.2,0.5-0.5,0.7c0,0-2.5,0.9-4.7,1.5c-0.4,0.1-0.8,0.2-1.1,0.3c-0.5,0.2-1.1-0.2-1.1-0.7l0.1-2.5l0.1-3.1
	c0-0.3,0.1-0.6,0.4-0.8c0.3-0.2,0.6-0.2,0.9,0l1.1,0.8c0.1,0.1,0.3,0.1,0.4,0C15.8,9.3,18.8,8,22,8c2.5,0,5.2,0.8,7.5,2.3
	C29.7,10.5,29.8,10.8,29.5,10.9z"/>
<path class="st1" d="M43.9,20.1c-6.2-0.1-13,0.2-19,1.8c-8.9,2.3-17.6,2.4-24.9,1.8C0.9,35,10.4,44,22,44c12.2,0,22-9.8,22-22
	C44,21.4,44,20.7,43.9,20.1z M33.4,29.9l-0.1,3.2c0,0.3-0.1,0.6-0.4,0.8c-0.3,0.2-0.6,0.2-0.9,0L30.8,33c-0.1-0.1-0.3-0.1-0.4,0
	C28.2,34.8,25.2,36,22,36c-2.5,0-5.2-0.8-7.5-2.3c-0.2-0.1-0.2-0.4,0-0.6l2.3-1.7c0.1-0.1,0.2-0.1,0.4,0c1.5,0.8,3.1,1.2,4.9,1.2
	c1.9,0,4-0.5,5.7-1.7l-1.2-0.8c-0.2-0.2-0.4-0.5-0.4-0.8c0-0.3,0.2-0.5,0.5-0.7c0,0,2.5-0.9,4.7-1.5c0.4-0.1,0.8-0.2,1.1-0.3
	c0.5-0.2,1.1,0.2,1.1,0.7L33.4,29.9z"/>
<g>
	<path class="st2" d="M33.5,27.5l-0.1,2.5l-0.1,3.2c0,0.3-0.1,0.6-0.4,0.8c-0.3,0.2-0.6,0.2-0.9,0L30.8,33c-0.1-0.1-0.3-0.1-0.4,0
		C28.2,34.8,25.2,36,22,36c-2.5,0-5.2-0.8-7.5-2.3c-0.2-0.1-0.2-0.4,0-0.6l2.3-1.7c0.1-0.1,0.2-0.1,0.4,0c1.5,0.8,3.1,1.2,4.9,1.2
		c1.9,0,4-0.5,5.7-1.7l-1.2-0.8c-0.2-0.2-0.4-0.5-0.4-0.8c0-0.3,0.2-0.5,0.5-0.7c0,0,2.5-0.9,4.7-1.5c0.4-0.1,0.8-0.2,1.1-0.3
		C32.8,26.6,33.4,26.9,33.5,27.5z"/>
	<path class="st2" d="M29.5,10.9l-2.3,1.7c-0.1,0.1-0.2,0.1-0.4,0c-1.5-0.8-3.1-1.2-4.9-1.2c-2,0-3.9,0.5-5.7,1.7l1.2,0.8
		c0.2,0.2,0.4,0.5,0.4,0.8c0,0.3-0.2,0.5-0.5,0.7c0,0-2.5,0.9-4.7,1.5c-0.4,0.1-0.8,0.2-1.1,0.3c-0.5,0.2-1.1-0.2-1.1-0.7l0.1-2.5
		l0.1-3.1c0-0.3,0.1-0.6,0.4-0.8c0.3-0.2,0.6-0.2,0.9,0l1.1,0.8c0.1,0.1,0.3,0.1,0.4,0C15.8,9.3,18.8,8,22,8c2.5,0,5.2,0.8,7.5,2.3
		C29.7,10.5,29.8,10.8,29.5,10.9z"/>
</g>
</svg>
