<?xml version="1.0" encoding="utf-8"?>
<!-- Generator: Adobe Illustrator 22.1.0, SVG Export Plug-In . SVG Version: 6.00 Build 0)  -->
<svg version="1.1" id="Layer_1" xmlns="http://www.w3.org/2000/svg" xmlns:xlink="http://www.w3.org/1999/xlink" x="0px" y="0px"
	 viewBox="0 0 44 44" style="enable-background:new 0 0 44 44;" xml:space="preserve">
<style type="text/css">
	.st0{fill:#72D9F7;}
	.st1{fill:#EB7872;}
	.st2{fill:#FCD0B0;}
</style>
<path class="st0" d="M44,22c0,6.7-3,12.8-7.8,16.8c-1.5-0.3-3-0.6-4.5-1c-1.4-0.3-2.8-0.6-4.2-0.9c0.1-0.2,0.1-0.4,0.1-0.6
	c0-1.4,0.8-2.7,1.1-4c-1.9-0.4-1-1.5-0.6-2.5c-0.1-0.6,0.1-1.4-0.7-1.8c-0.3-0.3-0.6-0.6-0.9-1c0-2.2,2.6-5.4,4.9-5.9
	c0.2-0.1,0.2,0.4,0.2,0.6c1.1-1.3,1.9-3.1,2.7-4.9c-1.3,0.1-0.9-0.9-1-1.6c-0.1-1,0.4-2-1-3.6c0.5,2.5-2.1,1.4-2.1,3.1
	c1.4,1.1,1.2,2.3,0.4,3.6c-0.9,1.5-1.5-0.6-2.4-0.2c-0.3,0.8-0.2,1.6-0.2,2.5c0,0.7-0.1,1.4-1,1.5c-0.4,1-0.9,1.7-2.1,1
	c-0.3-1.2-0.7-2.4-1-3.6c0.5-1.6,0-3.7,2.1-4.6c0.3-0.9,1-1.5,1.6-2.3c1.5-2,1.3-2.5-1.2-3.2c-0.8,0.4-1.1,1.2-1.1,1.9
	c0.1,2.1-1,3.5-2.4,4.8c-0.3-2.6-0.6-5.1,2-7C26,8.3,25,8.2,24.3,8.2c-0.4,0-0.3-0.5-0.1-0.8c-0.2-1.1-0.7-1.8-1.9-1.1v1
	c0,1.3-2.4,1.2-1.5,3.3c0.6,1.3,0,3-0.1,4.6c-0.1,1.5,0.5,2.9,1,4.3c0.1,0.4,0.2,0.8-0.3,1.6c-1.9-4.6-1.1-9.1-1.2-13.5
	C19.9,6,18.7,7.3,18,7c-1.4,0.4-0.6,1.1-0.1,1.7c0.8,1.3,0.9,1.3-0.3,2.2c-0.7,0.5-0.3,0.9,0,1.3c1.9,2.5,0.8,5.6,1.8,8.2
	c0.1,0.2,0.1,0.3,0.1,0.5c-0.2,0.7-2-0.5-1.3,1c0.3,0.6,1.2,0.9,1.8,1.5c1.3,1.2,1.3,2.9,1.9,4.8c-2.4-1.7-3.7-3.9-4.9-6.1
	c-0.4-0.8-0.2-1.5,0.1-2.2c0.3-0.6,1-1.2,0.4-1.9s-1,0.8-1.8,0.3c0-1.6,1.6-2.8,1.3-4.5c-1.3-0.2-1.1,0.9-1.6,1.5
	c-1.2-1.3,0.1-2,0.5-2.9c0.5-1,1.3-2.2-0.9-1.7c-0.8,0.2-0.8-0.4-1-0.9c-0.2-0.6-0.6-1.1-1.3-0.8c-0.8,0-0.8,0.6-0.7,1.3
	c0.3,1.3,0.5,2.7,0.7,4.1c-1.2-0.3-1.4-1.3-1.8-2.1c-0.3-0.5-0.4-1.3-1.2-1.1C9,11.4,9.3,12,9.2,12.5c-0.1,0.6-0.4,0.9-1,1.1
	c0.1,0.7,0.7,0.8,1.3,1.1c1.7,0.9,3.1,2.1,3.9,4.3c-0.9-0.3-0.9-1.7-1.9-0.9c0.8,1.1-2.4,1.9-0.2,3c2.7,0.4,4.3,2,5.4,4.3
	c0.2,0.5,1.1,1,0.6,1.5c-0.7,0.7-1.2-0.2-1.8-0.5c-0.2-0.1-0.5-0.1-0.7-0.2c-0.5,0.4,0,0.8,0,1.2c-0.1,2.4-0.1,2.5,2.3,1.5
	c1.2-0.5,2.2-0.6,3.2,0.6c0.9,0.9,2,1.7,3.1,2.4c1.6,1.1,2.9,2.2,2.5,4.4c0,0.1,0,0.3,0,0.4c-7-1-14.6-0.8-20.5-0.3
	C2,32.6,0,27.5,0,22C0,9.8,9.8,0,22,0S44,9.8,44,22z"/>
<path class="st0" d="M25.7,30.7c-1.9-1-3.6-5.2-3.4-8.5C24.6,24.7,24.6,27.8,25.7,30.7z"/>
<path class="st1" d="M33.3,15.2c-0.1-1,0.4-2-1-3.6c0.5,2.5-2.1,1.4-2.1,3.1c1.4,1.1,1.2,2.3,0.4,3.6c-0.9,1.5-1.5-0.6-2.4-0.2
	c-0.3,0.8-0.2,1.6-0.2,2.5c0,0.7-0.1,1.4-1,1.5c-0.4,1-0.9,1.7-2.1,1c-0.3-1.2-0.7-2.4-1-3.6c0.5-1.6,0-3.7,2.1-4.6
	c0.3-0.9,1-1.5,1.6-2.3c1.5-2,1.3-2.5-1.2-3.2c-0.8,0.4-1.1,1.2-1.1,1.9c0.1,2.1-1,3.5-2.4,4.8c-0.3-2.6-0.6-5.1,2-7
	C26,8.3,25,8.2,24.3,8.2c-0.4,0-0.3-0.5-0.1-0.8c-0.2-1.1-0.7-1.8-1.9-1.1v1c0,1.3-2.4,1.2-1.5,3.3c0.6,1.3,0,3-0.1,4.6
	c-0.1,1.5,0.5,2.9,1,4.3c0.1,0.4,0.2,0.8-0.3,1.6c-1.9-4.6-1.1-9.1-1.2-13.5C19.9,6,18.7,7.3,18,7c-1.4,0.4-0.6,1.1-0.1,1.7
	c0.8,1.3,0.9,1.3-0.3,2.2c-0.7,0.5-0.3,0.9,0,1.3c1.9,2.5,0.8,5.6,1.8,8.2c0.1,0.2,0.1,0.3,0.1,0.5c-0.2,0.7-2-0.5-1.3,1
	c0.3,0.6,1.2,0.9,1.8,1.5c1.3,1.2,1.3,2.9,1.9,4.8c-2.4-1.7-3.7-3.9-4.9-6.1c-0.4-0.8-0.2-1.5,0.1-2.2c0.3-0.6,1-1.2,0.4-1.9
	s-1,0.8-1.8,0.3c0-1.6,1.6-2.8,1.3-4.5c-1.3-0.2-1.1,0.9-1.6,1.5c-1.2-1.3,0.1-2,0.5-2.9c0.5-1,1.3-2.2-0.9-1.7
	c-0.8,0.2-0.8-0.4-1-0.9c-0.2-0.6-0.6-1.1-1.3-0.8c-0.8,0-0.8,0.6-0.7,1.3c0.3,1.3,0.5,2.7,0.7,4.1c-1.2-0.3-1.4-1.3-1.8-2.1
	c-0.3-0.5-0.4-1.3-1.2-1.1C9,11.4,9.3,12,9.2,12.5c-0.1,0.6-0.4,0.9-1,1.1c0.1,0.7,0.7,0.8,1.3,1.1c1.7,0.9,3.1,2.1,3.9,4.3
	c-0.9-0.3-0.9-1.7-1.9-0.9c0.8,1.1-2.4,1.9-0.2,3c2.7,0.4,4.3,2,5.4,4.3c0.2,0.5,1.1,1,0.6,1.5c-0.7,0.7-1.2-0.2-1.8-0.5
	c-0.2-0.1-0.5-0.1-0.7-0.2c-0.5,0.4,0,0.8,0,1.2c-0.1,2.4-0.1,2.5,2.3,1.5c1.2-0.5,2.2-0.6,3.2,0.6c0.9,0.9,2,1.7,3.1,2.4
	c1.6,1.1,2.9,2.2,2.5,4.4c0,0.1,0,0.3,0,0.4c0.5,0.1,1.1,0.1,1.7,0.2c0.1-0.2,0.1-0.4,0.1-0.6c0-1.4,0.8-2.7,1.1-4
	c-1.9-0.4-1-1.5-0.6-2.5c-0.1-0.6,0.1-1.4-0.7-1.8c-0.3-0.3-0.6-0.6-0.9-1c0-2.2,2.6-5.4,4.9-5.9c0.2-0.1,0.2,0.4,0.2,0.6
	c1.1-1.3,1.9-3.1,2.7-4.9C33,16.9,33.4,15.9,33.3,15.2z M22.3,22.2c2.3,2.5,2.3,5.6,3.4,8.5C23.8,29.7,22.1,25.5,22.3,22.2z"/>
<path class="st2" d="M36.2,38.8C32.4,42,27.4,44,22,44c-6.6,0-12.6-2.9-16.6-7.6c5.9-0.5,13.5-0.7,20.5,0.3c0.5,0.1,1.1,0.1,1.7,0.2
	c1.4,0.2,2.8,0.5,4.2,0.9C33.2,38.2,34.7,38.5,36.2,38.8z"/>
</svg>
