<?xml version="1.0" encoding="utf-8"?>
<!-- Generator: Adobe Illustrator 22.1.0, SVG Export Plug-In . SVG Version: 6.00 Build 0)  -->
<svg version="1.1" id="Layer_1" xmlns="http://www.w3.org/2000/svg" xmlns:xlink="http://www.w3.org/1999/xlink" x="0px" y="0px"
	 viewBox="0 0 44 44" style="enable-background:new 0 0 44 44;" xml:space="preserve">
<style type="text/css">
	.st0{fill:#72D9F7;}
	.st1{fill:#00B2A9;}
</style>
<path class="st0" d="M22,0C9.8,0,0,9.8,0,22s9.8,22,22,22s22-9.8,22-22S34.2,0,22,0z M37.4,17.9c-0.2,0.4-0.6,0.7-1,0.7
	c-2.2-0.1-4.5,0.7-6.3,1.5c0.4,1.4,0.7,2.9,0.7,4.4c0,2.7-0.7,5.2-1.9,7.1c1.3,1.6,1.7,3.4,1.8,4.9c0,0.5-0.2,0.9-0.7,1
	c-0.4,0.2-0.9,0-1.2-0.3c-0.8-0.9-1.8-1.7-2.9-2.4c-1.2,0.8-2.5,1.2-3.9,1.2c-1.4,0-2.7-0.5-3.9-1.2c-1.1,0.7-2.1,1.5-2.9,2.4
	c-0.3,0.3-0.8,0.5-1.2,0.3c-0.4-0.2-0.7-0.6-0.7-1c0.1-1.5,0.5-3.2,1.8-4.9c-1.2-2-1.9-4.4-1.9-7.1c0-1.6,0.2-3.1,0.7-4.4
	c-1.8-0.8-4.2-1.6-6.3-1.5c-0.5,0-0.9-0.3-1-0.7c-0.2-0.4,0-0.9,0.3-1.2c1.9-1.5,5-2.8,9.5-1c0.7-0.8,1.6-1.5,2.5-1.9
	c-0.3-0.7-0.5-1.6-0.5-2.5c0-2.7,1.6-4.9,3.6-4.9s3.6,2.2,3.6,4.9c0,0.9-0.2,1.8-0.5,2.5c0.9,0.5,1.8,1.1,2.5,1.9
	c4.4-1.8,7.5-0.5,9.5,1C37.4,17,37.5,17.5,37.4,17.9z"/>
<g>
	<g>
		<path class="st1" d="M37.4,17.9c-0.2,0.4-0.6,0.7-1,0.7c-2.2-0.1-4.5,0.7-6.3,1.5c0.4,1.4,0.7,2.9,0.7,4.4c0,2.7-0.7,5.2-1.9,7.1
			c1.3,1.6,1.7,3.4,1.8,4.9c0,0.5-0.2,0.9-0.7,1c-0.4,0.2-0.9,0-1.2-0.3c-0.8-0.9-1.8-1.7-2.9-2.4c-1.2,0.8-2.5,1.2-3.9,1.2
			c-1.4,0-2.7-0.5-3.9-1.2c-1.1,0.7-2.1,1.5-2.9,2.4c-0.3,0.3-0.8,0.5-1.2,0.3c-0.4-0.2-0.7-0.6-0.7-1c0.1-1.5,0.5-3.2,1.8-4.9
			c-1.2-2-1.9-4.4-1.9-7.1c0-1.6,0.2-3.1,0.7-4.4c-1.8-0.8-4.2-1.6-6.3-1.5c-0.5,0-0.9-0.3-1-0.7c-0.2-0.4,0-0.9,0.3-1.2
			c1.9-1.5,5-2.8,9.5-1c0.7-0.8,1.6-1.5,2.5-1.9c-0.3-0.7-0.5-1.6-0.5-2.5c0-2.7,1.6-4.9,3.6-4.9s3.6,2.2,3.6,4.9
			c0,0.9-0.2,1.8-0.5,2.5c0.9,0.5,1.8,1.1,2.5,1.9c4.4-1.8,7.5-0.5,9.5,1C37.4,17,37.5,17.5,37.4,17.9z"/>
	</g>
</g>
</svg>
