<?xml version="1.0" encoding="utf-8"?>
<!-- Generator: Adobe Illustrator 22.1.0, SVG Export Plug-In . SVG Version: 6.00 Build 0)  -->
<svg version="1.1" id="Layer_1" xmlns="http://www.w3.org/2000/svg" xmlns:xlink="http://www.w3.org/1999/xlink" x="0px" y="0px"
	 viewBox="0 0 44 44" style="enable-background:new 0 0 44 44;" xml:space="preserve">
<style type="text/css">
	.st0{fill:#00B2A9;}
	.st1{fill:#FCD0B0;}
</style>
<path class="st0" d="M41.1,11.1l-4.8-0.4l-1.5-6.5C31.3,1.5,26.8,0,22,0c-0.3,0-0.5,0-0.8,0l-2.8,4l-5.9-1.8h0
	C8,4.3,4.4,7.9,2.2,12.3l0.6,5l-2.6,1.2v0C0.1,19.6,0,20.8,0,22c0,6.1,2.5,11.6,6.5,15.6L13,35l7.3,8.9h0c0.6,0,1.1,0.1,1.7,0.1
	c3.6,0,7.1-0.9,10.1-2.4l0.1-8.8l10.5-3.3c0.8-2.3,1.3-4.9,1.3-7.5C44,18,42.9,14.3,41.1,11.1z M27.9,27.2l-12.4,2L9.7,17.9L18.6,9
	l11.2,5.7L27.9,27.2z"/>
<polygon class="st1" points="29.8,14.8 27.9,27.2 15.4,29.2 9.7,17.9 18.6,9 "/>
<path class="st1" d="M42.7,29.5C40.8,34.7,37,39,32.1,41.6l0.1-8.8L42.7,29.5z"/>
<path class="st1" d="M21.2,0l-2.8,4l-5.9-1.8C15.1,0.9,18.1,0.1,21.2,0z"/>
<path class="st1" d="M20.2,43.9c-5.4-0.4-10.2-2.8-13.8-6.3L13,35L20.2,43.9z"/>
<path class="st1" d="M2.9,17.3l-2.6,1.2c0.3-2.2,1-4.3,2-6.2L2.9,17.3z"/>
<path class="st1" d="M41.1,11.1l-4.8-0.4l-1.5-6.5C37.4,6,39.5,8.3,41.1,11.1z"/>
</svg>
