<?xml version="1.0" encoding="utf-8"?>
<!-- Generator: Adobe Illustrator 22.1.0, SVG Export Plug-In . SVG Version: 6.00 Build 0)  -->
<svg version="1.1" id="Layer_1" xmlns="http://www.w3.org/2000/svg" xmlns:xlink="http://www.w3.org/1999/xlink" x="0px" y="0px"
	 viewBox="0 0 44 44" style="enable-background:new 0 0 44 44;" xml:space="preserve">
<style type="text/css">
	.st0{fill:#72D9F7;}
	.st1{fill:#FFFFFF;}
	.st2{fill:#00B2A9;}
</style>
<g id="ride_icon4">
	<path class="st0" d="M44,22c0,12.2-9.8,22-22,22S0,34.2,0,22c0-0.7,0-1.5,0.1-2.2c1.2,0.2,3.5,0.7,6.3,1C6.2,21.3,6,21.9,6,22.5
		c0,2.1,1.7,3.9,3.8,3.9h0.9c-1,0-1.8,0.8-1.8,1.8S9.8,30,10.8,30h24.4c1,0,1.8-0.8,1.8-1.8s-0.8-1.8-1.8-1.8h-3.8
		c1.3-1.3,2-3.2,2-5.1c0-1-0.2-1.9-0.5-2.7c3.7-0.8,7.2-1.1,10.6-1C43.8,19,44,20.5,44,22z"/>
	<path class="st1" d="M43.5,17.5c-3.3,0-6.9,0.3-10.6,1c-1.1-2.8-3.8-4.8-7-4.8c-2.6,0-4.9,1.3-6.3,3.4h-1.9c0-0.2,0.1-0.3,0.2-0.4
		c0.8-1.4,2.2-3.2,3.8-3.8c0.9-0.3,3.8-0.8,3.8-0.8c-1.2-0.3-2.5-0.3-3.8,0c-2.5,0.4-4.5,3.8-4.5,3.8l-0.6,1.2h-0.3
		c-1.3,0-2.4,0.6-3.1,1.5H9.8c-1.5,0-2.8,0.9-3.4,2.1c-2.8-0.3-5.1-0.7-6.3-1C1.2,8.7,10.6,0,22,0C32.6,0,41.5,7.5,43.5,17.5z"/>
	<g id="Sub_Side_View">
		<path class="st2" d="M37,28.2c0,1-0.8,1.8-1.8,1.8H10.8c-1,0-1.8-0.8-1.8-1.8s0.8-1.8,1.8-1.8H9.8c-2.1,0-3.8-1.7-3.8-3.9
			c0-0.6,0.2-1.2,0.4-1.7c0.6-1.3,1.9-2.1,3.4-2.1h3.4c0.7-0.9,1.8-1.5,3.1-1.5h0.3l0.6-1.2c0,0,2-3.4,4.5-3.8
			c1.2-0.3,2.5-0.3,3.8,0c0,0-2.8,0.5-3.8,0.8c-1.5,0.5-2.9,2.4-3.8,3.8c-0.1,0.1-0.1,0.3-0.2,0.4h1.9c1.3-2,3.7-3.4,6.3-3.4
			c3.2,0,5.9,2,7,4.8c0.3,0.8,0.5,1.8,0.5,2.7c0,2-0.8,3.8-2,5.1h3.8C36.2,26.4,37,27.2,37,28.2z"/>
	</g>
</g>
</svg>
