<?xml version="1.0" encoding="utf-8"?>
<!-- Generator: Adobe Illustrator 22.1.0, SVG Export Plug-In . SVG Version: 6.00 Build 0)  -->
<svg version="1.1" id="Layer_1" xmlns="http://www.w3.org/2000/svg" xmlns:xlink="http://www.w3.org/1999/xlink" x="0px" y="0px"
	 viewBox="0 0 44 44" style="enable-background:new 0 0 44 44;" xml:space="preserve">
<style type="text/css">
	.st0{fill:#72D9F7;}
	.st1{fill:#D0EDF4;}
	.st2{fill:#EB7872;}
</style>
<g id="ride_icon2">
	<path class="st0" d="M43.9,19.6L31,18.4c0-0.1-0.1-0.2-0.2-0.3s-0.1-0.2-0.2-0.3c-0.8-1.6-2-2.9-3.5-3.8c2.2-0.2,4.1-1.9,4.5-4.1
		h3.1c0.5,0,1-0.4,1-1c0-0.5-0.4-0.9-1-0.9h-3c-0.3-2-1.7-3.6-3.6-4.2c-0.2-1.3-0.8-2.5-1.8-3.4C35.7,2.3,42.8,10,43.9,19.6z"/>
	<path class="st0" d="M31.6,23.4c0,0.1,0,0.2-0.1,0.3c0,0.1,0,0.2,0,0.3c-0.9,4.3-4.7,7.4-9.1,7.5c-5.2,0-12.4-1.7-12.4-6.9
		c0-4.6,5.5-10.3,10.4-11.7c-0.4-0.2-0.7-0.4-1-0.6c-1.1,0.7-2.5,1.1-3.9,1.1h-0.2c-1.1,0-2.2-0.3-3.2-0.8c-0.8,0.6-1.9,0.9-3,0.9
		c-2.5,0-4.6-1.8-5-4.2C1.5,12.8,0,17.2,0,22c0,12.2,9.8,22,22,22c11.8,0,21.5-9.3,22-21L31.6,23.4z M31.6,34.5
		c-4,0.1-7.9,0.6-11.8,0.5c-2.9-0.1-7.1-0.4-8.6-3.3c-0.2-0.5-0.1-1,0.4-1.3c0.4-0.2,1-0.1,1.3,0.3c1.5,2.9,7.1,2.5,9.8,2.4
		c3,0,6-0.5,9-0.5c0.5,0,0.9,0.5,0.9,1C32.5,34.1,32.1,34.4,31.6,34.5z"/>
	<path class="st1" d="M11.2,9.9h20.5c-0.5,2.2-2.3,3.8-4.5,4.1c-0.8-0.5-1.6-0.8-2.5-1.1c-0.1,0-0.3-0.1-0.4-0.1v-2.1h-2.8v2
		c-0.4,0-0.7,0.1-1.1,0.2c-0.4-0.2-0.7-0.4-1-0.6c-1.1,0.7-2.5,1.1-3.9,1.1h-0.2c-1.1,0-2.2-0.3-3.2-0.8c-0.8,0.6-1.9,0.9-3,0.9
		c-2.5,0-4.6-1.8-5-4.2c1-1.5,2.3-2.8,3.6-4c0.9-0.8,1.9-1.5,2.9-2.1c2.8-1.7,6-2.8,9.4-3.1c0.2,0,0.5,0,0.7-0.1c0.4,0,0.8,0,1.2,0
		c0.2,0,0.3,0,0.5,0c1.3,0,2.6,0.2,3.9,0.4c1,0.8,1.7,2,1.8,3.4C30.1,4.4,31.5,6,31.8,8H11.2c-0.5,0-0.9,0.4-0.9,0.9c0,0,0,0,0,0
		C10.3,9.5,10.7,9.9,11.2,9.9z"/>
	<path class="st2" d="M32.5,33.6c0,0.5-0.4,0.9-0.9,0.9c-4,0.1-7.9,0.6-11.8,0.5c-2.9-0.1-7.1-0.4-8.6-3.3c-0.2-0.5-0.1-1,0.4-1.3
		c0.4-0.2,1-0.1,1.3,0.3c1.5,2.9,7.1,2.5,9.8,2.4c3,0,6-0.5,9-0.5C32.1,32.6,32.5,33.1,32.5,33.6z"/>
	<path class="st2" d="M43.9,19.6L31,18.4c0-0.1-0.1-0.2-0.2-0.3s-0.1-0.2-0.2-0.3c-0.8-1.6-2-2.9-3.5-3.8c-0.8-0.5-1.6-0.8-2.5-1.1
		c-0.1,0-0.3-0.1-0.4-0.1v-2.1h-2.8v2c-0.4,0-0.7,0.1-1.1,0.2C15.5,14.2,10,19.9,10,24.5c0,5.2,7.2,6.9,12.4,6.9
		c4.4,0,8.2-3.1,9.1-7.5c0-0.1,0-0.2,0-0.3c0-0.1,0-0.2,0.1-0.3L44,23c0-0.3,0-0.7,0-1C44,21.2,44,20.4,43.9,19.6z M25.6,23.3
		c-0.1,0.2-0.2,0.4-0.3,0.6c-0.9,1.5-3,1.6-5.5,1.6c-3.3,0-9,1.2-7.9-1.9c1.2-3.8,4.1-6.9,7.9-8.3c2.4-0.6,4.5,1.5,5.5,4.1
		c0.1,0.3,0.2,0.7,0.3,1c0.1,0.5,0.2,1,0.2,1.6C25.8,22.5,25.8,22.9,25.6,23.3z"/>
	<path class="st0" d="M25.8,22c0,0.5-0.1,0.9-0.2,1.3c-0.1,0.2-0.2,0.4-0.3,0.6c-0.9,1.5-3,1.6-5.5,1.6c-3.3,0-9,1.2-7.9-1.9
		c1.2-3.8,4.1-6.9,7.9-8.3c2.4-0.6,4.5,1.5,5.5,4.1c0.1,0.3,0.2,0.7,0.3,1C25.7,20.9,25.8,21.5,25.8,22z"/>
	<path class="st2" d="M35.8,8.9c0,0.5-0.4,1-1,1H11.2c-0.5,0-0.9-0.4-0.9-0.9c0,0,0,0,0,0c0-0.5,0.4-0.9,0.9-0.9h23.6
		C35.4,8,35.8,8.4,35.8,8.9z"/>
</g>
</svg>
