<?xml version="1.0" encoding="utf-8"?>
<!-- Generator: Adobe Illustrator 22.1.0, SVG Export Plug-In . SVG Version: 6.00 Build 0)  -->
<svg version="1.1" id="Layer_1" xmlns="http://www.w3.org/2000/svg" xmlns:xlink="http://www.w3.org/1999/xlink" x="0px" y="0px"
	 viewBox="0 0 44 44" style="enable-background:new 0 0 44 44;" xml:space="preserve">
<style type="text/css">
	.st0{fill:#00B2A9;}
	.st1{fill:#FCD0B0;}
</style>
<g id="ride_icon1">
	<circle class="st0" cx="22" cy="22" r="22"/>
	<path id="Location" class="st1" d="M20.7,35.5c-1.1-1.3-2.1-2.5-3-3.6s-1.7-2.4-2.6-3.7c-0.9-1.4-1.7-3-2.3-4.5
		c-0.6-1.5-1.1-3-1.3-4.6c0-0.4-0.1-0.9-0.1-1.3c0-2.6,1-5.1,2.9-7c1.8-1.9,4.3-2.9,7-2.9c2.6,0,5.1,1,7,2.9c1.9,1.8,2.9,4.3,2.9,7
		c0,0.4,0,0.8-0.1,1.2c-0.2,1.6-0.6,3.2-1.3,4.7c-0.6,1.5-1.4,3-2.2,4.4c-0.8,1.3-1.6,2.6-2.6,3.9s-1.6,2.2-2,2.6
		c-0.4,0.4-0.7,0.8-0.9,1c-0.1,0.2-0.3,0.3-0.4,0.4c-0.2,0.1-0.4,0.1-0.5,0C21,35.8,20.8,35.7,20.7,35.5L20.7,35.5L20.7,35.5z
		 M15,17.7c0,1.7,0.6,3.3,1.8,4.5c2.5,2.5,6.4,2.5,8.9,0c0,0,0,0,0,0c2.5-2.5,2.5-6.5,0-9c-2.5-2.5-6.4-2.5-8.9,0c0,0,0,0,0,0
		C15.7,14.4,15,16.1,15,17.7L15,17.7z"/>
</g>
</svg>
