<?xml version="1.0" encoding="utf-8"?>
<!-- Generator: Adobe Illustrator 22.1.0, SVG Export Plug-In . SVG Version: 6.00 Build 0)  -->
<svg version="1.1" id="Layer_1" xmlns="http://www.w3.org/2000/svg" xmlns:xlink="http://www.w3.org/1999/xlink" x="0px" y="0px"
	 viewBox="0 0 44 44" style="enable-background:new 0 0 44 44;" xml:space="preserve">
<style type="text/css">
	.st0{fill:#EB7872;}
	.st1{fill:#00B2A9;}
	.st2{fill:#FCD0B0;}
</style>
<g id="ride_icon3">
	<path class="st0" d="M44,22c0,3.4-0.8,6.7-2.2,9.5c-2.7-1.1-5.7-1.9-8.9-2.5v-0.7c0.7-1,1-2.2,0.9-3.5c0-1.4-0.2-2.9-0.6-4.2
		l2.1-0.1c0.3,0,0.6-0.3,0.6-0.6v-1.4c0-0.3-0.3-0.6-0.6-0.6h-2c-0.2,0-0.3,0.1-0.4,0.2l-0.4,0.4c-0.8-1.8-1.9-3.5-3.2-5
		c-0.8-0.9-1.9-1.5-3.1-1.5h-8.2c-1.2,0-2.4,0.5-3.1,1.5c-1.3,1.5-2.4,3.2-3.2,5l-0.4-0.4c-0.1-0.1-0.3-0.2-0.4-0.2h-2
		c-0.3,0-0.6,0.3-0.6,0.6v1.4c0,0.3,0.2,0.6,0.6,0.6l2.1,0.1c-0.4,1.4-0.6,2.8-0.6,4.2C10,26,10.3,27.3,11,28.3V29
		c-3.2,0.6-6.1,1.5-8.9,2.5C0.8,28.7,0,25.4,0,22C0,9.8,9.8,0,22,0S44,9.8,44,22z"/>
	<path class="st1" d="M41.8,31.5C38.3,38.9,30.7,44,22,44S5.7,38.9,2.2,31.5c2.7-1.1,5.7-1.9,8.9-2.5v2.5c0,0.3,0.2,0.5,0.5,0.5h2.4
		c0.3,0,0.5-0.2,0.5-0.5v-2h15.2v2c0,0.3,0.2,0.5,0.5,0.5h2.3c0.3,0,0.5-0.2,0.5-0.5V29C36.1,29.6,39.1,30.5,41.8,31.5z"/>
	<path class="st2" d="M35.4,17.9h-2c-0.2,0-0.3,0.1-0.4,0.2l-0.4,0.4c-0.8-1.8-1.9-3.5-3.2-5c-0.8-0.9-1.9-1.5-3.1-1.5h-8.2
		c-1.2,0-2.4,0.5-3.1,1.5c-1.3,1.5-2.4,3.2-3.2,5l-0.4-0.4c-0.1-0.1-0.3-0.2-0.4-0.2h-2c-0.3,0-0.6,0.3-0.6,0.6v1.4
		c0,0.3,0.2,0.6,0.6,0.6l2.1,0.1c-0.4,1.4-0.6,2.8-0.6,4.2C10,26,10.3,27.3,11,28.3v3.2c0,0.3,0.2,0.5,0.5,0.5h2.4
		c0.3,0,0.5-0.2,0.5-0.5v-2h15.2v2c0,0.3,0.2,0.5,0.5,0.5h2.3c0.3,0,0.5-0.2,0.5-0.5v-3.2c0.7-1,1-2.2,0.9-3.5
		c0-1.4-0.2-2.9-0.6-4.2l2.1-0.1c0.3,0,0.6-0.3,0.6-0.6v-1.4C36,18.2,35.7,17.9,35.4,17.9z M16.5,14.8c0.4-0.4,0.9-0.7,1.4-0.6h8.2
		c0.5,0,1.1,0.2,1.4,0.6c0.9,1.1,1.7,2.2,2.4,3.5H14.1C14.7,17.1,15.5,15.9,16.5,14.8z M14.8,27.1c-1.2,0-2.1-0.4-2.1-1.3
		c-0.1-0.8,0.4-1.5,1.1-1.6c0.1,0,0.2,0,0.4,0c1.2,0,2.7,0.7,2.7,1.6C16.8,26.7,15.9,27.1,14.8,27.1z M24.2,26.9h-4.4
		c-0.7,0-1.2-0.5-1.2-1.2c0-0.2,0.1-0.3,0.3-0.3h6.2c0.2,0,0.3,0.2,0.3,0.3C25.4,26.4,24.9,26.9,24.2,26.9z M31.3,25.8
		c0,0.9-0.9,1.3-2.1,1.3h0c-1.2,0-2.1-0.4-2.1-1.3c0-0.9,1.5-1.6,2.7-1.6c0.8-0.1,1.5,0.5,1.5,1.3C31.4,25.6,31.4,25.7,31.3,25.8z"
		/>
	<path class="st0" d="M29.9,18.3H14.1c0.7-1.2,1.5-2.4,2.4-3.5c0.4-0.4,0.9-0.7,1.4-0.6h8.2c0.5,0,1.1,0.2,1.4,0.6
		C28.4,15.9,29.2,17.1,29.9,18.3z"/>
	<path class="st0" d="M16.8,25.8c0,0.9-0.9,1.3-2.1,1.3s-2.1-0.4-2.1-1.3c-0.1-0.8,0.4-1.5,1.1-1.6c0.1,0,0.2,0,0.4,0
		C15.3,24.2,16.8,24.9,16.8,25.8z"/>
	<path class="st0" d="M25.4,25.7c0,0.7-0.5,1.2-1.2,1.2h-4.4c-0.7,0-1.2-0.5-1.2-1.2c0-0.2,0.1-0.3,0.3-0.3h6.2
		C25.3,25.4,25.4,25.5,25.4,25.7z"/>
	<path class="st0" d="M31.4,25.4c0,0.1,0,0.2,0,0.4c0,0.9-0.9,1.3-2.1,1.3h0c-1.2,0-2.1-0.4-2.1-1.3c0-0.9,1.5-1.6,2.7-1.6
		C30.6,24.1,31.3,24.7,31.4,25.4z"/>
</g>
</svg>
