<svg id="Layer_1" data-name="Layer 1" xmlns="http://www.w3.org/2000/svg" viewBox="0 0 178.58 71.98"><title>ItsLive_Qld_White</title><path d="M104.88,57.54a1,1,0,0,1-.09-0.23,0.24,0.24,0,0,1,0-.14c0.29-.5,2.26-3.11,2.18-4.49a1.88,1.88,0,0,0-1.72-1.56,4,4,0,0,0-2.52.63,16.94,16.94,0,0,0-1.78.88,2.31,2.31,0,0,0-1.13,2,2.26,2.26,0,0,0,.68,1.75c0.43,0.69,1.31,1.23,1,1.68s-0.86,1.37-1.14,1.75a20.39,20.39,0,0,0-1.56,2.38A9.69,9.69,0,0,1,96.6,64.6c-0.11,0-.64-0.48-0.12-2.59,0.09-.37.35-1.53,0.44-1.83a10.1,10.1,0,0,0,.26-1.3,2.87,2.87,0,0,0-.42-1.46,6.56,6.56,0,0,0-.63-0.85,4.43,4.43,0,0,0-1.07-.86,4,4,0,0,0-1.3-.39,2.87,2.87,0,0,0-1.95.45,9.69,9.69,0,0,0-1.3.86c-0.41.32-.33,0-0.38-0.51a1.46,1.46,0,0,0-.47-0.75,3.47,3.47,0,0,0-1.14-.51,1.49,1.49,0,0,0-1.3.31,2.8,2.8,0,0,0-.36,1.44,8,8,0,0,1-1.06,2.57A12,12,0,0,1,83,62.82a11.37,11.37,0,0,1-2.75,1.89c-0.59.21-.88,0.26-1.43-0.57a0.68,0.68,0,0,1,0-.76,20.68,20.68,0,0,0,1.93-1.74,12.5,12.5,0,0,0,2.53-3.16c0.76-1.63.8-2.83-.67-4.09a5,5,0,0,0-5.07-.52A5.42,5.42,0,0,0,76,55.18a5.67,5.67,0,0,0-1.18,1.9,8.76,8.76,0,0,0-.31,3.19,5.51,5.51,0,0,0,.76,1.83l0.06,0.12a1.4,1.4,0,0,1,.22.77,9.2,9.2,0,0,1-2,1.46,25.19,25.19,0,0,1-2.38,1.25,2.15,2.15,0,0,1-1.53.24,2,2,0,0,1-1.25-1,7.61,7.61,0,0,1-1.23-4.64A0.45,0.45,0,0,1,67.46,60,2.38,2.38,0,0,0,69.3,60a5.65,5.65,0,0,0,1.93-1.47c1.07-1,2.62-3.13,2.53-4.27-0.14-1.81-.64-2.51-2.87-2.89a4.46,4.46,0,0,0-.74-0.07,9.07,9.07,0,0,0-1.71.25,5,5,0,0,0-2.21,1,8.44,8.44,0,0,0-1.09,1.74,7.58,7.58,0,0,0-.91,2.53l-0.13.58a9.72,9.72,0,0,0-.23,2.58,15,15,0,0,0,.45,3.39,5.71,5.71,0,0,0,2.56,2.76,7,7,0,0,0,3.94,1.28h0c1.46,0,4.64-1.54,6.08-2.51a0.2,0.2,0,0,1,.23,0,6,6,0,0,0,2.66,1.26,4.7,4.7,0,0,0,3.28-.56,6.6,6.6,0,0,0,1.51-1,6,6,0,0,1,1.49-1.37c0.4,0,.14.47,0.12,0.91a1.07,1.07,0,0,0,.48,1.13,1.61,1.61,0,0,0,.78.21,1.08,1.08,0,0,0,1-.2,2.5,2.5,0,0,0,.55-1A15.26,15.26,0,0,1,90.45,61a12,12,0,0,1,2.43-2.94c2.25-1.51.84,2.06,0.68,2.69a7.21,7.21,0,0,0-.12,4.07,2.92,2.92,0,0,0,2.88,1.76,2.18,2.18,0,0,0,1.31-.41,5.34,5.34,0,0,0,2.06-1.74c0.37-.51,1-1.71,1.42-2.26s0.82-1,1.06-1.33a7.67,7.67,0,0,0,1-1.49,0.14,0.14,0,0,1,.2,0,12.68,12.68,0,0,1,1.57,1.79,4,4,0,0,1,.89,2.13,2.48,2.48,0,0,1-.73,1.59,2.1,2.1,0,0,1-2.76.34,13,13,0,0,1-1-1.29,0.57,0.57,0,0,0-.58.35,2,2,0,0,0,0,.93,3.47,3.47,0,0,0,1.09,1.6,5.76,5.76,0,0,0,4.3,1.2c0.45,0,2.86-1,3.22-2.92,0.4-2.19,0-3.34-1.39-4.69S105.06,57.86,104.88,57.54Zm-37.66.84a9,9,0,0,1,.18-0.94c0-.21.14-0.5,0.15-0.54s0.13-.36.2-0.53l0.2-.45,0.1-.23a9.52,9.52,0,0,1,1.13-2.05,4,4,0,0,1,.67-0.71,0.64,0.64,0,0,1,.81,0,0.73,0.73,0,0,1,.28.62,5.71,5.71,0,0,1-2.24,4.09c-0.47.36-1,.77-1.15,0.86s-0.17.26-.31,0.19A0.38,0.38,0,0,1,67.22,58.38Zm11,2.63a0.48,0.48,0,0,1-.09-0.27,8.61,8.61,0,0,1,.72-4.49c0.32-.6,1.39-1.33,1.93-1a0.48,0.48,0,0,1,.3.31,5,5,0,0,1-.65,2.28,13.39,13.39,0,0,1-1.59,2.52s-0.21.24-.38,0.46A0.34,0.34,0,0,1,78.19,61Zm24.89-7a4.19,4.19,0,0,1,2-1c0.36,0-1.6,2.56-1.6,2.56C102.81,54.95,102.74,54.3,103.09,54Z" transform="translate(0 0)" style="fill:#fff"/><path d="M59.37,67.36c-0.13,0-1.34.59-1.73,0.77s-1,.57-2.4,1.15c-2.6,1.08-3.45.59-5.21,0.1a10.91,10.91,0,0,1-3.43-1.53c-1-.63-1.68-1.2-2.28-1.51C44.06,66.21,42.67,65,42.67,65s0.46-.48,1.49-1.67c0.47-.55,1-1.22,1.6-2,0.28-.39.71-0.75,1-1.21,0.46-.72.58-1.18,0.83-1.62,0.44-.75.67-1.25,1.1-2.14a25.61,25.61,0,0,0,1.57-3.51,15.54,15.54,0,0,0,1.42-5.07,20.2,20.2,0,0,0-.34-6.43,13.2,13.2,0,0,0-2-5.07c-1.59-2.41-5.46-4.11-7.87-4.11a14.72,14.72,0,0,0-9.54,4,28,28,0,0,0-6.26,10.19c-0.33.87-.74,2.14-1,3.22-0.1.4-.25,0.78-0.31,1.1-0.09.49-.06,1-0.11,1.49C24,54,24,55.67,24,55.67A14.53,14.53,0,0,0,24.31,59a4.68,4.68,0,0,0,1.19,2.32,0.54,0.54,0,0,0,.22.14,1.55,1.55,0,0,0,1,.11,4.12,4.12,0,0,0,2.28-2,0.87,0.87,0,0,0-.12-1.12,4,4,0,0,1-1-2.67c-0.26-3.73-.19-7.14,2.88-13.2,0.59-1,1.15-1.95,1.66-2.74,0.14-.22.24-0.43,0.38-0.64s0.37-.47.52-0.68a12.87,12.87,0,0,1,3.65-3.78,5.57,5.57,0,0,1,4.73-.12,12.5,12.5,0,0,1,2.65,1.32,7.2,7.2,0,0,1,2.47,2.82,9.51,9.51,0,0,1,1.37,5.05,17.59,17.59,0,0,1-.82,7,26.43,26.43,0,0,1-1.47,3.56,16.53,16.53,0,0,1-2,3.51L42.54,59.7a15.4,15.4,0,0,1-2.68,3s-0.92-.59-1.74-1.21a10.91,10.91,0,0,0-1.43-.82A7.74,7.74,0,0,0,35,60.06a7,7,0,0,0-1.83-.18,4.22,4.22,0,0,0-2.52.78,4.56,4.56,0,0,0-1.37,1.66A3.88,3.88,0,0,0,29.57,66a3.39,3.39,0,0,0,1.95,1.69,7.93,7.93,0,0,0,2.94.6,8.57,8.57,0,0,0,4.4-.87l0.75-.31a21,21,0,0,0,4.52,2.65c0.22,0.1.44,0.23,0.67,0.32s0.33,0,.5.11,0.34,0.23.52,0.29a16.52,16.52,0,0,0,6.56,1.12,12.24,12.24,0,0,0,3.06-.32,17.66,17.66,0,0,0,1.84-.58,6.26,6.26,0,0,0,1.49-1C59.39,69.12,60.59,67.2,59.37,67.36ZM34.31,65.89a3.9,3.9,0,0,1-2.61-.58A1.2,1.2,0,0,1,30.77,64c0-.46.67-1.07,1.8-0.89a9,9,0,0,1,3.12,1,2.87,2.87,0,0,1,1.2.75A11.28,11.28,0,0,1,34.31,65.89Z" transform="translate(0 0)" style="fill:#fff"/><path d="M62.41,64.63a20.6,20.6,0,0,1-.28-2.78,14.29,14.29,0,0,1,.06-1.68,4.48,4.48,0,0,1,.36-1.3,1.26,1.26,0,0,0-.23-1.49,2.15,2.15,0,0,0-1.38-.48,1.51,1.51,0,0,0-1.22.57c-0.33.46-1.21,1.94-1.68,2.61s-1.47,2.31-2.15,3.11a1.58,1.58,0,0,1-.67.69,0.5,0.5,0,0,1-.11-0.33,15.31,15.31,0,0,1,1.82-7.49,10.77,10.77,0,0,1,1-1.69,3.94,3.94,0,0,0,.74-1,0.87,0.87,0,0,0-.47-0.95,3.22,3.22,0,0,0-2.39-.73,2.69,2.69,0,0,0-1.56,1.09A24.64,24.64,0,0,0,52.88,55a13.73,13.73,0,0,1-2.43,2.83c-0.92.77-1.16,0.86-.72,1.07,1.92,0.64,2.9-.48,2.82-0.19-0.15.54-.21,1.36-0.28,1.64A11.81,11.81,0,0,0,52,61.87a14.57,14.57,0,0,0-.13,1.77,3.89,3.89,0,0,0,.74,1.21,4.1,4.1,0,0,0,1.18,1.05,2.33,2.33,0,0,0,1.93.41A3.73,3.73,0,0,0,57,65.48a8.49,8.49,0,0,0,2.59-2.83,3,3,0,0,0,.11.64,3.06,3.06,0,0,0,.24.76,2.25,2.25,0,0,0,.88.81C62.27,65.7,62.55,65.2,62.41,64.63Z" transform="translate(0 0)" style="fill:#fff"/><path d="M167.39,39.77a6.31,6.31,0,0,0-.45-3.11,2.57,2.57,0,0,0-2.42-1.58,2.63,2.63,0,0,0-2.06,1.13,23.92,23.92,0,0,0-2.15,3.33c-0.18.37-1,2.19-1.11,2.57a36.22,36.22,0,0,0-1.07,3.68c-0.36,1.51-.58,2.83-0.85,3.93q-0.14.6-.27,1.11c-0.1.4-.19,0.75-0.28,1.06l-0.22.81-0.2.71c-0.11.44-.17,0.45-0.55,0.37l-1.09-.24a6.13,6.13,0,0,0-2.33.28,8.81,8.81,0,0,0-3,2.41,5.18,5.18,0,0,0-1.52,2,11.25,11.25,0,0,0-.55,1.56,15.35,15.35,0,0,1-1.2,2.85c-0.32.43-1.64,2-2.52,1.92a0.89,0.89,0,0,1-.53-0.95,7.6,7.6,0,0,1,.05-0.78c0-.19.11-0.39,0.15-0.59,0.08-.41.15-0.84,0.25-1.27,0.17-.71.54-1.42,0.7-2a7.76,7.76,0,0,0,.24-1.67,2.79,2.79,0,0,0-.45-2A3,3,0,0,0,142,54.23a3.8,3.8,0,0,0-3.48,1.26,1.45,1.45,0,0,1-.65.54c-0.28,0-.1-0.92-0.46-1.1a2.48,2.48,0,0,0-2-.21,2.07,2.07,0,0,0-1.06,1.82,6.41,6.41,0,0,1-.23,1.61c-0.15.52-.36,1.17-0.49,1.72-0.48,2.05-.88,4.13-2.36,4.13-0.61,0-1.19-2.4-1.19-2.4a8.26,8.26,0,0,1,0-2.5l0.06-.28c0.11-.53.23-0.9,0.32-1.54,0.05-.36,0-0.74.06-1.11a0.53,0.53,0,0,0-.3-0.38,3,3,0,0,0-2.33-.25h-0.07a1.21,1.21,0,0,0-.86.86c-0.23.49-.46,0.94-0.7,1.39l-0.28.55a22,22,0,0,1-1.11,2c-0.14.21-.42,0.63-0.77,1.1a1.15,1.15,0,0,0-.25.32c-1.56,2-1.94,1.88-2.11,1.82a0.64,0.64,0,0,1-.27-0.66c0-.23.1-0.44,0.15-0.64s0.11-.46.16-0.7a11.94,11.94,0,0,1,1.49-3.65,19.16,19.16,0,0,1,2.4-3.24,7,7,0,0,1,1.64-1.44,1,1,0,0,1,1.45,0,1.39,1.39,0,0,0,1.44.46,0.83,0.83,0,0,0,.65-1.32,2.2,2.2,0,0,0-1.3-.81,6.36,6.36,0,0,0-2-.17,5.41,5.41,0,0,0-2.06.41,6.66,6.66,0,0,0-1.8,1.43,16.77,16.77,0,0,0-3.14,3.92,12,12,0,0,0-1.64,4.07l0,0.2a4.27,4.27,0,0,0,0,2.26,4.47,4.47,0,0,0,1.51,2l0.17,0.18a4.06,4.06,0,0,0,1.42.54,4.83,4.83,0,0,0,1.56-.31,4.91,4.91,0,0,0,1.85-1c0.45-.45,1.38-1.53,1.75-2l0.05,0a1.1,1.1,0,0,1,.37-0.36,7.51,7.51,0,0,0,.63,1.11A4.64,4.64,0,0,0,130,64.94s0.9,0.2,1.21.29a3.84,3.84,0,0,0,3.56-.27,3.76,3.76,0,0,0,.92-1,13.91,13.91,0,0,0,.92-1.92c1.29-2.27,1.79-3.54,3.14-4.5a0.7,0.7,0,0,1,.81.91c-0.82,3-.85,5.3.23,6.86a3.66,3.66,0,0,0,2,1.53c0.84,0.05,2-.25,3.63-1.66,0.09-.08.83-1,1-1.22a0.35,0.35,0,0,1,.23-0.15,0.34,0.34,0,0,1,.2.16,2.59,2.59,0,0,0,.28.31,4.73,4.73,0,0,0,1.19.92,3.13,3.13,0,0,0,4.12-.3l0.75-.7c0.41-.38,1.27-1.25,1.68-1.7a12.57,12.57,0,0,0,1.1,3.61,10.79,10.79,0,0,0,.61,1,6.75,6.75,0,0,0,.55.94A4.13,4.13,0,0,0,161,69.64c0.54,0,1.18,0,1.07-.56a3.53,3.53,0,0,0-.68-1.14,15.26,15.26,0,0,1-1.69-5.07c-0.48-3.1-.44-5,0-5.53a45.55,45.55,0,0,0,2.75-4c0.64-1,1.26-2.15,1.8-3.26a35,35,0,0,0,1.63-3.23c0.22-.55.82-1.91,1-2.61a12.6,12.6,0,0,0,.41-2.43C167.41,41.23,167.38,40.26,167.39,39.77ZM155.8,58.49a12.68,12.68,0,0,1-2.74,3.85l-0.52.49A3.73,3.73,0,0,1,150.92,64a0.45,0.45,0,0,1-.37-0.14c-0.5-.51,0-2,0.36-3.12a19.9,19.9,0,0,1,3.71-5.09,1.29,1.29,0,0,1,1.31-.17C156.34,55.7,156.23,56.48,155.8,58.49Zm7.28-11.77a19.66,19.66,0,0,1-1.27,3,16.85,16.85,0,0,1-1.05,1.63,1.17,1.17,0,0,1-.59.5,2,2,0,0,1,.05-0.67,72.25,72.25,0,0,1,2-8.42c0.9-2.35,1.46-4.77,2.06-5.42a1.57,1.57,0,0,1,.37-0.33,0.31,0.31,0,0,1,.15,0C165.45,37.21,165.81,40.05,163.08,46.71Z" transform="translate(0 0)" style="fill:#fff"/><path d="M127.14,69.09c0.59-1.54-.54-0.81-0.86-0.72-0.14,0-1.07.58-1.16,0.63a24.1,24.1,0,0,1-3.19,1.25,3.47,3.47,0,0,1-2.3,0,5.4,5.4,0,0,1-2.22-1.55A8.4,8.4,0,0,1,116,65.5a12.65,12.65,0,0,1-.17-2.13c0-.54,0-1.43.09-1.92a22.58,22.58,0,0,0,.52-3c0-.29.05-1.27,0.16-1.89a13,13,0,0,1,.55-2,18.14,18.14,0,0,0,1.28-1.73l0.11-.16c0.5-.74,2-2.59,3.26-4.09,0.66-.81,1.3-1.51,1.5-1.77,0.67-.89,1.83-2.94,2.3-3.72,0,0,.88-1.66,1.18-2.36,0.12-.3.3-0.59,0.43-0.88,0.06-.13.56-1.56,0.69-2.11a14.85,14.85,0,0,0,.31-2,8.18,8.18,0,0,0-.4-4.26c-0.21-.79-1.5-1.2-1.86-1.38a2.9,2.9,0,0,0-2.86.19,8.49,8.49,0,0,0-3.56,3.33c-0.26.5-.53,1.45-0.75,2-0.1.23-.26,0.46-0.37,0.69-0.57,1.22-1,2.49-1.4,3.6-0.15.4-1.18,3.71-1.5,4.92-0.13.5-.41,1.8-0.69,3.06s-0.57,2.65-.71,3.18a19.77,19.77,0,0,0-.53,2.45,0.15,0.15,0,0,1,0,.07c-1.45,1.9-2.39,3.16-2.66,3.55-0.11.15-.25,0.32-0.39,0.49a2.8,2.8,0,0,0-.7,1.14c0.09,0.4,1.16.17,1.36,0.12a3.53,3.53,0,0,0,1-.53l0.24-.13,0.09,0a0.2,0.2,0,0,1,.13,0,0.32,0.32,0,0,1,.16.23,2.85,2.85,0,0,1-.07,1c0,0.16-.11,1-0.12,1.16a15.39,15.39,0,0,0-.09,1.56,12.94,12.94,0,0,0,0,2.67,7.78,7.78,0,0,0,1.46,3.61c0.33,0.42.88,0.8,1.33,1.26a4.82,4.82,0,0,0,1,.89A9.56,9.56,0,0,0,122,72a12,12,0,0,0,3.34-.76A5.52,5.52,0,0,0,127.14,69.09ZM117.68,48h0c0.13-.5,2.09-6.84,3.2-9.83,0.38-1,2.33-6.15,3.3-6.79a1.24,1.24,0,0,1,.46-0.19h0.14a0.77,0.77,0,0,1,.48.16,1.51,1.51,0,0,1,.48,1.11A26.71,26.71,0,0,1,124.33,39a36.66,36.66,0,0,1-3.54,6.74c-0.55.86-2.15,2.79-2.84,2.8l-0.11,0A0.39,0.39,0,0,1,117.68,48Z" transform="translate(0 0)" style="fill:#fff"/><rect y="0.57" width="10.04" height="36.37" style="fill:#fff"/><path d="M44.78,14.8c0.95,4.35,3.95,7,8.37,8.23,3.12,0.83,4.72,1.49,4.72,3.62,0,1.66-1.35,2.73-3.71,2.73a7.35,7.35,0,0,1-5.57-2.51h-4v3.92a11.22,11.22,0,0,1,7.5,6.59,23.8,23.8,0,0,0,2.45.13c8.9,0,12.74-4.52,12.74-12.05,0-13.67-14-9-14-14.81,0-1.56,1.05-2.57,3.46-2.57a8.66,8.66,0,0,1,5.19,2h4V2.4A18.7,18.7,0,0,0,56.44,0c-3.67,0-6.4.79-8.32,2.28a8.82,8.82,0,0,1,.5,3C48.61,9.42,47.21,12.72,44.78,14.8Z" transform="translate(0 0)" style="fill:#fff"/><polygon points="99.55 28.68 89.15 28.68 89.15 0.57 79.11 0.57 79.11 36.94 99.55 36.94 99.55 28.68" style="fill:#fff"/><rect x="101.78" y="0.57" width="10.04" height="36.37" style="fill:#fff"/><path d="M122.32,28.57a5.75,5.75,0,0,1,2.44-.66,5,5,0,0,1,1.92.43l0.07,0,0.07,0L127,28.48A4.23,4.23,0,0,1,129.66,31c0.05,0.2.1,0.37,0.15,0.53a9.5,9.5,0,0,1,.31,4.4c0,0.36-.07.7-0.12,1h3.74l8.81-33.82V0.57h-8.71l-5.27,22.55h-0.13L123.18,0.57H113.9V3.12l6.84,26.42A8.92,8.92,0,0,1,122.32,28.57Z" transform="translate(0 0)" style="fill:#fff"/><path d="M160.82,35.24l0.1-.14a4.49,4.49,0,0,1,3.59-1.91l0.32,0V28.83H154.4V22.5h7.89V14.7H154.4V8.88h10.06V0.57H144.4V36.94h15.23C160,36.34,160.43,35.77,160.82,35.24Z" transform="translate(0 0)" style="fill:#fff"/><path d="M39.13,7.4C39.84,8.17,41,8.07,41,9.29c0,1.07-1.47,1.7-3.07,2v4.07c5.22-.12,8.77-3.8,8.77-10.07C46.72,1.54,44.52.05,42,.05s-4.18,1.41-4.18,3.82C37.82,6,38.45,6.79,39.13,7.4Z" transform="translate(0 0)" style="fill:#fff"/><path d="M19.06,36.94h9.66l0.37-.45V9h6.69V0.57H12.34V9h6.71v28Z" transform="translate(0 0)" style="fill:#fff"/><polygon points="168.28 0.63 168.28 7.39 170.39 24.84 176.51 24.84 178.58 7.39 178.58 0.63 168.28 0.63" style="fill:#fff"/><path d="M173.43,26.79a5.09,5.09,0,0,0-5.09,5.34,5.09,5.09,0,1,0,10.19,0A5,5,0,0,0,173.43,26.79Z" transform="translate(0 0)" style="fill:#fff"/><path d="M2.49,50.93A1.92,1.92,0,0,0,1.27,52.4a1,1,0,0,0,0,.23,0.84,0.84,0,0,0,.06.2c0.24,0.55,1,.71,2.37.45a1.37,1.37,0,0,0,1.13-2.11A2.15,2.15,0,0,0,2.49,50.93Z" transform="translate(0 0)" style="fill:#fff"/><path d="M18.93,63.53c-0.84.14-1.77,0.85-2.31,0.62A0.33,0.33,0,0,1,16.46,64a1.28,1.28,0,0,1-.08-0.36,6.7,6.7,0,0,1,0-1.19c0-.06,0-0.18,0-0.33,0.06-.44.18-1.17,0.23-1.5s0.07-.37.12-0.55c0.14-.56.33-1.13,0.42-1.6a5.83,5.83,0,0,0,.14-1.24V57.11a3.2,3.2,0,0,0-.48-2,2.57,2.57,0,0,0-1.3-1,3.32,3.32,0,0,0-.88-0.23,3.75,3.75,0,0,0-1.8.34,7.72,7.72,0,0,0-1.83,1.34,0.46,0.46,0,0,1-.24.19,2.08,2.08,0,0,0-.61-1.1,2.19,2.19,0,0,0-1.81-.34,1.28,1.28,0,0,0-.66.58,3.76,3.76,0,0,0-.32,1.26l-0.12.88-0.07.49-0.07.51a12.27,12.27,0,0,1-.59,2.63,9.25,9.25,0,0,1-.43.88,5.64,5.64,0,0,1-1.19,1.48l-0.3.27c-0.33.29-1.38,1-1.47-.89a18,18,0,0,1,.26-2.87,11.84,11.84,0,0,1,.41-2.34c0-.09.06-0.17,0.09-0.24a2.13,2.13,0,0,0,.16-0.53,2.53,2.53,0,0,0,0-.4,0.71,0.71,0,0,0-.33-0.56A2.58,2.58,0,0,0,1.59,55a1.34,1.34,0,0,0-.33.14l-0.12.08a2,2,0,0,0-.39.58,2.38,2.38,0,0,0-.19.57c-0.06.26-.13,0.59-0.19,1s-0.08.52-.12,0.81A21.9,21.9,0,0,0,0,60.44a16.54,16.54,0,0,0,0,1.94,3.69,3.69,0,0,0,.38,1.36,4.34,4.34,0,0,0,.31.63,3.18,3.18,0,0,0,.85.94,2.7,2.7,0,0,0,1.52.36,4.8,4.8,0,0,0,2.21-.57c0.8-.42,1-1,1.31-0.94s0,0.68.47,1a1.58,1.58,0,0,0,1.39-.05,2.13,2.13,0,0,0,.76-0.37,1.07,1.07,0,0,0,.16-0.2l0.08-.14a2.25,2.25,0,0,0,.14-0.3c0-.11.08-0.24,0.12-0.37,0.16-.53.28-1.17,0.38-1.64l0.07-.31a2,2,0,0,1,.07-0.22,8.93,8.93,0,0,1,1.81-3.82c1.23-1.38,2.31-1.28,2,0a20.53,20.53,0,0,0-.66,4.49,3.83,3.83,0,0,0,1,2.56,3.09,3.09,0,0,0,2,1.12,2.58,2.58,0,0,0,2.3-.77C19.84,63.74,19.55,63.43,18.93,63.53Z" transform="translate(0 0)" style="fill:#fff"/></svg>