<?xml version="1.0" encoding="utf-8"?>
<!-- Generator: Adobe Illustrator 22.1.0, SVG Export Plug-In . SVG Version: 6.00 Build 0)  -->
<svg version="1.1" id="Layer_1" xmlns="http://www.w3.org/2000/svg" xmlns:xlink="http://www.w3.org/1999/xlink" x="0px" y="0px"
	 viewBox="0 0 537 300" style="enable-background:new 0 0 537 300;" xml:space="preserve">
<style type="text/css">
	.st0{fill:#0FADA9;}
</style>
<g>
	<g>
		<path d="M178,69h17.4v1.2c0,23.4,0,46.7,0,70.1c0,5.3,0.8,10.4,3,15.3c4.8,10.4,14.8,16.5,26.4,16.1c13.6-0.5,24.3-9.7,26.9-23.3
			c0.5-2.6,0.7-5.2,0.7-7.8c0.1-23.4,0-46.8,0-70.2V69H270v116.2h-17.2v-10.6c-0.6,0.5-1,0.9-1.5,1.3c-7.7,7.1-16.8,10.8-27.2,11.3
			c-8.3,0.4-16.2-1.2-23.5-5.1c-9.7-5.2-16.2-13.1-19.8-23.5c-1.9-5.4-2.7-10.9-2.7-16.6c0-23.9,0-47.9,0-71.8V69H178z"/>
	</g>
	<g>
		<path d="M357.7,143c-0.1-16.8-13.5-29-28.5-29.3c-15.9-0.3-29.8,12.4-29.8,29.6c0,16.1,13.1,29.2,29.2,29.1
			C344.6,172.4,357.7,159.2,357.7,143L357.7,143z M299.6,185.3H283V69h16.7v42.2c0.4-0.4,0.7-0.7,1-0.9c7.7-7.2,16.8-11.2,27.3-11.5
			c12.9-0.5,24.1,3.8,33.3,12.9c8.2,8.1,12.5,18.1,12.9,29.6c0.5,12.3-3.4,23-11.8,32c-7.6,8.2-17.1,12.8-28.3,13.8
			c-12,1.1-22.7-2.2-32-10c-0.4-0.4-0.8-0.7-1.3-1.1c-0.4-0.3-0.8-0.7-1.3-1.2L299.6,185.3L299.6,185.3z"/>
	</g>
	<g>
		<path d="M449.8,135c-2.4-11.9-12.7-22.3-27.4-21.4c-6.6,0.4-12.2,3.1-16.9,7.9c-3.7,3.8-6,8.3-7.2,13.6h51.5V135z M466.8,148.4
			h-68.7c0.8,7.2,6.2,17.2,16.6,21.8c9.8,4.3,26.3,3.3,35.8-10.1c4,3,8,5.9,12.2,9c-1.2,1.4-2.3,2.8-3.6,4.1
			c-8.4,8.8-18.8,13.4-30.9,13.9c-10.4,0.4-20-2-28.6-8c-9.7-6.8-15.6-16-17.8-27.7c-2.1-11.6-0.2-22.5,6.1-32.4
			c7.1-11.2,17.3-17.8,30.5-19.7c11.4-1.6,22,0.7,31.4,7.6c8.7,6.4,13.8,15.2,16.1,25.7C466.9,137.8,466.9,143,466.8,148.4
			L466.8,148.4z"/>
	</g>
	<g>
		<path d="M518.8,99.9v15.6c-0.9,0-1.8,0-2.7,0c-2.7,0.1-5.4-0.1-8,0.4c-7.1,1.3-11.5,5.9-13.8,12.5c-0.9,2.7-1.3,5.5-1.3,8.4
			c0,15.7,0,31.5,0,47.2v1.2h-16.8v-84.6h16.6v10.2c0.3-0.4,0.4-0.5,0.5-0.7c4.5-6.7,10.9-9.9,18.9-10.2
			C514.3,99.8,516.5,99.9,518.8,99.9L518.8,99.9z"/>
	</g>
	<g>
		<path class="st0" d="M164.3,168.3v8.3l-0.5,0.5c-4.2,3.8-13.7,10.3-30.4,10.3c-26.2,0-42.4-16.8-42.4-43.8c0-13.1,4.2-24.2,12-32
			c7.7-7.6,18.4-11.7,30.9-11.7c15.6,0,23.6,4.7,28.2,8.3l0.6,0.5v8.7h-6.6l-0.5-0.4c-5.3-5-12.5-7.5-22-7.5
			c-19.2,0-31.1,13.1-31.1,34.2c0,21.8,11.3,34.3,31.1,34.3c10.1,0,18.4-3.1,24-9l0.5-0.5h6.2V168.3z"/>
	</g>
	<g>
		<path class="st0" d="M80.5,161.1c0,16.9-11.8,26.2-33.2,26.2c-15.6,0-24.1-4.6-29-8.1l-0.7-0.5v-8.9H23l0.4,0.4
			c4,3.5,11.4,7.7,23.4,7.7c14.7,0,22.2-5.4,22.2-16.2c0-7.8-3.3-11.9-22.1-14.8c-25.4-3.9-28.6-14.7-28.6-23.6
			c0-14.5,11.8-23.5,30.9-23.5c10.6,0,19.2,2.1,26.1,6.4l0.7,0.5v9h-5.5l-0.4-0.3c-4.1-3.2-9.5-6.2-20.8-6.2c-13.5,0-20,4.4-20,13.5
			c0,7.4,3.2,11.4,21.5,14.3C68.6,139.7,80.5,144.8,80.5,161.1z"/>
	</g>
</g>
</svg>
